<svg width="51" height="58" viewBox="0 0 51 58" fill="none" xmlns="http://www.w3.org/2000/svg">
<circle opacity="0.4" cx="25.5012" cy="28.7453" r="21.3274" fill="#D5ACFE"/>
<path d="M2.71392 13.0224L21.8846 0.828197C23.5954 -0.232918 25.722 -0.277273 27.4622 0.711823L48.0168 12.2155C49.747 13.1986 50.8357 15.0546 50.8759 17.0911L50.9988 39.5929C51.0397 41.6218 50.036 43.5233 48.3584 44.5997L28.8987 57.0816C27.1786 58.1851 25.0165 58.2469 23.2493 57.2431L3.15593 45.826C1.37864 44.8161 -0.0130442 42.8866 9.22329e-05 40.7939L9.22329e-05 17.9197C0.0132287 15.9162 1.04173 14.0597 2.71392 13.0224Z" fill="#212121"/>
<path d="M3.0805 13.6134L3.08053 13.6135L3.08718 13.6092L22.2544 1.41718C23.7499 0.491286 25.6024 0.454705 27.1185 1.31645L27.1225 1.3187L47.6733 12.8202C47.6739 12.8206 47.6745 12.8209 47.6752 12.8213C49.1836 13.6793 50.1434 15.3044 50.1805 17.0999L50.3033 39.5967L50.3033 39.5967L50.3035 39.6069C50.3396 41.399 49.4527 43.0712 47.9829 44.0143C47.9828 44.0143 47.9828 44.0144 47.9828 44.0144L28.5232 56.4962L28.5232 56.4963C27.019 57.4612 25.1337 57.5137 23.5927 56.6384L3.49952 45.2214C3.49952 45.2214 3.49951 45.2214 3.4995 45.2214C1.88755 44.3053 0.684332 42.5831 0.69555 40.7983V40.7939L0.69555 17.9221C0.707894 16.153 1.61658 14.5215 3.0805 13.6134Z" stroke="url(#paint0_linear_1021_9)" stroke-opacity="0.16" stroke-width="1.39092"/>
<path d="M18 30C18 28.1144 18 27.1716 18.5858 26.5858C19.1716 26 20.1144 26 22 26H30C31.8856 26 32.8284 26 33.4142 26.5858C34 27.1716 34 28.1144 34 30V32C34 34.8284 34 36.2426 33.1213 37.1213C32.2426 38 30.8284 38 28 38H24C21.1716 38 19.7574 38 18.8787 37.1213C18 36.2426 18 34.8284 18 32V30Z" stroke="white" stroke-width="2"/>
<path d="M30.5 25.9998L30.5776 25.3792C30.8365 23.3076 29.9043 21.2673 28.1688 20.1068V20.1068C26.1024 18.7252 23.3673 18.8955 21.4882 20.5228L20.6699 21.2315" stroke="white" stroke-width="2" stroke-linecap="round"/>
<circle cx="26" cy="32" r="2" fill="white"/>
<defs>
<linearGradient id="paint0_linear_1021_9" x1="25.5" y1="0" x2="25.5" y2="57.9548" gradientUnits="userSpaceOnUse">
<stop stop-color="white" stop-opacity="0.76"/>
<stop offset="1" stop-color="white"/>
</linearGradient>
</defs>
</svg>
