<svg width="51" height="58" viewBox="0 0 51 58" fill="none" xmlns="http://www.w3.org/2000/svg">
<circle opacity="0.4" cx="25.5012" cy="28.7453" r="21.3274" fill="#D5ACFE"/>
<path d="M2.71392 13.0224L21.8846 0.828197C23.5954 -0.232918 25.722 -0.277273 27.4622 0.711823L48.0168 12.2155C49.747 13.1986 50.8357 15.0546 50.8759 17.0911L50.9988 39.5929C51.0397 41.6218 50.036 43.5233 48.3584 44.5997L28.8987 57.0816C27.1786 58.1851 25.0165 58.2469 23.2493 57.2431L3.15593 45.826C1.37864 44.8161 -0.0130442 42.8866 9.22329e-05 40.7939L9.22329e-05 17.9197C0.0132287 15.9162 1.04173 14.0597 2.71392 13.0224Z" fill="#212121"/>
<path d="M3.0805 13.6134L3.08053 13.6135L3.08718 13.6092L22.2544 1.41718C23.7499 0.491286 25.6024 0.454705 27.1185 1.31645L27.1225 1.3187L47.6733 12.8202C47.6739 12.8206 47.6745 12.8209 47.6752 12.8213C49.1836 13.6793 50.1434 15.3044 50.1805 17.0999L50.3033 39.5967L50.3033 39.5967L50.3035 39.6069C50.3396 41.399 49.4527 43.0712 47.9829 44.0143C47.9828 44.0143 47.9828 44.0144 47.9828 44.0144L28.5232 56.4962L28.5232 56.4963C27.019 57.4612 25.1337 57.5137 23.5927 56.6384L3.49952 45.2214C3.49952 45.2214 3.49951 45.2214 3.4995 45.2214C1.88755 44.3053 0.684332 42.5831 0.69555 40.7983V40.7939L0.69555 17.9221C0.707894 16.153 1.61658 14.5215 3.0805 13.6134Z" stroke="url(#paint0_linear_1021_17)" stroke-opacity="0.16" stroke-width="1.39092"/>
<path d="M23 27L26.2581 29.4436C26.6766 29.7574 27.2662 29.6957 27.6107 29.3021L34 22" stroke="white" stroke-width="2" stroke-linecap="round"/>
<path d="M35 29C35 30.8805 34.411 32.7137 33.3156 34.2423C32.2203 35.7709 30.6736 36.9179 28.893 37.5224C27.1123 38.1268 25.187 38.1583 23.3874 37.6125C21.5879 37.0666 20.0046 35.9707 18.8598 34.4789C17.715 32.987 17.0663 31.174 17.0048 29.2945C16.9433 27.415 17.472 25.5634 18.5168 23.9999C19.5615 22.4363 21.0698 21.2392 22.8297 20.5768C24.5897 19.9144 26.513 19.82 28.3294 20.3067" stroke="white" stroke-width="2" stroke-linecap="round"/>
<defs>
<linearGradient id="paint0_linear_1021_17" x1="25.5" y1="0" x2="25.5" y2="57.9548" gradientUnits="userSpaceOnUse">
<stop stop-color="white" stop-opacity="0.76"/>
<stop offset="1" stop-color="white"/>
</linearGradient>
</defs>
</svg>
