<svg width="51" height="58" viewBox="0 0 51 58" fill="none" xmlns="http://www.w3.org/2000/svg">
<g clip-path="url(#clip0_29_2)">
<path opacity="0.4" d="M25.5012 50.0727C37.28 50.0727 46.8286 40.5241 46.8286 28.7453C46.8286 16.9665 37.28 7.4179 25.5012 7.4179C13.7224 7.4179 4.17383 16.9665 4.17383 28.7453C4.17383 40.5241 13.7224 50.0727 25.5012 50.0727Z" fill="#D5ACFE"/>
<path d="M2.71392 13.0224L21.8846 0.828197C23.5954 -0.232918 25.722 -0.277273 27.4622 0.711823L48.0168 12.2155C49.747 13.1986 50.8358 15.0546 50.8759 17.0911L50.9988 39.5929C51.0398 41.6218 50.036 43.5233 48.3584 44.5997L28.8987 57.0816C27.1786 58.1851 25.0165 58.2469 23.2493 57.2431L3.15593 45.826C1.37864 44.8161 -0.0130442 42.8866 9.22332e-05 40.7939V17.9197C0.0132287 15.9162 1.04173 14.0597 2.71392 13.0224Z" fill="#212121"/>
<path d="M32 27.0625C32 27.3468 31.9157 27.6247 31.7577 27.8611C31.5998 28.0975 31.3753 28.2818 31.1126 28.3906C30.8499 28.4994 30.5609 28.5278 30.2821 28.4724C30.0032 28.4169 29.7471 28.28 29.546 28.079C29.345 27.8779 29.2081 27.6218 29.1526 27.3429C29.0972 27.0641 29.1256 26.7751 29.2344 26.5124C29.3432 26.2497 29.5275 26.0252 29.7639 25.8673C30.0003 25.7093 30.2782 25.625 30.5625 25.625C30.9437 25.625 31.3094 25.7765 31.579 26.046C31.8485 26.3156 32 26.6813 32 27.0625ZM27.2083 20.8333H22.4167C22.1625 20.8333 21.9187 20.9343 21.739 21.114C21.5593 21.2937 21.4583 21.5375 21.4583 21.7917C21.4583 22.0458 21.5593 22.2896 21.739 22.4693C21.9187 22.649 22.1625 22.75 22.4167 22.75H27.2083C27.4625 22.75 27.7063 22.649 27.886 22.4693C28.0657 22.2896 28.1667 22.0458 28.1667 21.7917C28.1667 21.5375 28.0657 21.2937 27.886 21.114C27.7063 20.9343 27.4625 20.8333 27.2083 20.8333ZM38.7083 26.5833V30.4167C38.7083 31.1792 38.4054 31.9104 37.8663 32.4496C37.3271 32.9888 36.5958 33.2917 35.8333 33.2917H35.5506L33.6088 38.7278C33.4759 39.1002 33.231 39.4223 32.9078 39.6501C32.5846 39.8778 32.1989 40 31.8035 40H30.2798C29.8844 40 29.4987 39.8778 29.1755 39.6501C28.8523 39.4223 28.6075 39.1002 28.4745 38.7278L28.2445 38.0833H21.3805L21.1505 38.7278C21.0175 39.1002 20.7727 39.4223 20.4495 39.6501C20.1263 39.8778 19.7406 40 19.3452 40H17.8215C17.4261 40 17.0404 39.8778 16.7172 39.6501C16.394 39.4223 16.1491 39.1002 16.0162 38.7278L14.5104 34.5159C13.0779 32.8947 12.181 30.8706 11.9421 28.7204C11.6328 28.8829 11.3738 29.1267 11.1931 29.4257C11.0124 29.7247 10.9168 30.0673 10.9167 30.4167C10.9167 30.6708 10.8157 30.9146 10.636 31.0943C10.4563 31.274 10.2125 31.375 9.95833 31.375C9.70417 31.375 9.46041 31.274 9.28069 31.0943C9.10097 30.9146 9 30.6708 9 30.4167C9.00146 29.562 9.28849 28.7324 9.81546 28.0596C10.3424 27.3867 11.0791 26.9093 11.9085 26.7031C12.1226 24.0621 13.3221 21.5982 15.2688 19.8006C17.2155 18.0031 19.767 17.0034 22.4167 17H34.875C35.1292 17 35.3729 17.101 35.5526 17.2807C35.7324 17.4604 35.8333 17.7042 35.8333 17.9583C35.8333 18.2125 35.7324 18.4563 35.5526 18.636C35.3729 18.8157 35.1292 18.9167 34.875 18.9167H32.3127C33.9031 20.0325 35.1539 21.5665 35.9268 23.349C35.9783 23.4687 36.0286 23.5885 36.0765 23.7083C36.7961 23.7694 37.4664 24.0991 37.954 24.6318C38.4416 25.1645 38.7109 25.8612 38.7083 26.5833ZM36.7917 26.5833C36.7917 26.3292 36.6907 26.0854 36.511 25.9057C36.3313 25.726 36.0875 25.625 35.8333 25.625H35.3949C35.1908 25.6252 34.9919 25.5603 34.8273 25.4396C34.6627 25.3189 34.5409 25.1489 34.4797 24.9542C33.9306 23.202 32.836 21.6712 31.3555 20.5851C29.875 19.4989 28.0862 18.9144 26.25 18.9167H22.4167C20.7428 18.9166 19.1051 19.4035 17.7033 20.3182C16.3015 21.2328 15.196 22.5355 14.5218 24.0676C13.8476 25.5996 13.6338 27.2947 13.9064 28.9462C14.1789 30.5977 14.9262 32.1342 16.0569 33.3683C16.1434 33.4624 16.2102 33.5727 16.2534 33.693L17.8215 38.0833H19.3452L19.8028 36.8028C19.8693 36.6167 19.9916 36.4557 20.1531 36.3418C20.3145 36.2279 20.5073 36.1668 20.7048 36.1667H28.9202C29.1177 36.1668 29.3105 36.2279 29.4719 36.3418C29.6334 36.4557 29.7557 36.6167 29.8222 36.8028L30.2798 38.0833H31.8035L33.973 32.0111C34.0394 31.825 34.1617 31.664 34.3232 31.5501C34.4847 31.4363 34.6774 31.3751 34.875 31.375H35.8333C36.0875 31.375 36.3313 31.274 36.511 31.0943C36.6907 30.9146 36.7917 30.6708 36.7917 30.4167V26.5833Z" fill="white"/>
</g>
<defs>
<clipPath id="clip0_29_2">
<rect width="51" height="58" fill="white"/>
</clipPath>
</defs>
</svg>
